<svg id="Capa_1" data-name="Capa 1" xmlns="http://www.w3.org/2000/svg" viewBox="0 0 412.71 403.84"><defs><style>.cls-1{fill:#1e1712;}.cls-2{fill:#fff;}</style></defs><path class="cls-1" d="M660,247.37a5.74,5.74,0,0,0-3.91-.68,12.18,12.18,0,0,1-3.18.62c-9.53-.4-13.88-11.12-18.88-23.55-6-15.19-12.95-32.32-32-33.35h-1.39c-8.18,0-24.66,2.62-37.52,11.66a88.58,88.58,0,0,1,6.13-13.31c.06-.11.11-.26.19-.39a36.16,36.16,0,0,0-3.36-33.25c-6.84-10-18-14-28.5-10-10.23,3.88-16.5,14.25-16,26.36.48,10.22,5.76,18.78,13.34,22.08-.22,1.4-.33,3.21-.53,5.48s-.36,4.5-.49,5.18c-.7,1.28-5.91,4.87-9.82,6.46a5.58,5.58,0,0,0-.28-1.07c-.36-2.48-4.82-11-12.16-15.77-1.29-6.75-5.38-14.12-18.25-9.68-4.69-6-12.76-8.67-24.58-3.07-3.27-4.82-8.64-10.83-19.81-2.5-10-5.39-17.17-10.28-26.64,2.12-7.11-1-24.76,4.75-33.13,9.89-1.61-1.64-1.89-5-2.14-8.4,10.44-4.38,15.52-13.13,13.72-23.78-2.16-12.57-14.32-26.13-30.27-26.13a27.21,27.21,0,0,0-8.58,1.42c-14.2,4.67-21.32,16-19,30.4,2,12,9.8,22.36,18,24.24-1.49,6.26-.78,16.64.31,20.48a59.22,59.22,0,0,1-3.58,8c-12.24-16.23-23.26-19.8-30.62-19.8a23,23,0,0,0-10.56,2.59c-13,5.86-22.9,21.08-32.47,35.9-7.72,11.87-15,23.1-22.46,27.19a11.22,11.22,0,0,1-8.63.41,2.59,2.59,0,0,0-2.7.63,2.62,2.62,0,0,0-2,3.74c13.16,26.05,32.41,39.3,57.19,39.3h1.13c8.75,0,18.05-1.62,28.3-4.87,0,12.78,4.64,43.92,11.95,68a5.15,5.15,0,0,0,.49.86s.24.31.74.92c-23.4,9.64-43.6,30.19-43.6,72.09,0,60.43,29.67,91.44,88.07,92.25h.8c.54,0,1.06,0,1.67,0h1.1a87.36,87.36,0,0,0,27.33-4.39c35.27-5.3,42.78-5.42,72.41-1.23,3.09.47,6.44,1,10.08,1.49a86.64,86.64,0,0,0,26.41,4.13h.58c1.12,0,2.18,0,3.31,0,45.84-.93,75-20.86,83.06-56.53l.06-.2c.09-.53.23-1.09.35-1.64.16-.87.33-1.67.5-2.55a.68.68,0,0,1,.09-.4c.33-1.95.57-3.95.83-6.1a108.82,108.82,0,0,0,.88-14c0-1.89,0-3.77-.14-5.54a21.38,21.38,0,0,0-.11-2.19l-.05-1.54c-.08-.54-.08-1.11-.15-1.68-.07-1.21-.26-2.41-.42-3.69v-.42c0-.33-.06-.71-.09-1-.17-1.46-.41-2.84-.67-4.26l-.07-.75c-.26-1.49-.62-3-.94-4.49l-.06-.27c-.29-1.46-.7-3-1.11-4.43v-.1c-7-25.57-23.29-44-47.29-53.58a.91.91,0,0,0,.17-.27,1.53,1.53,0,0,0,.18-.49c7.46-24.28,12-55.73,12-68.33a46.43,46.43,0,0,0,8,.69c11,0,48.4-3.76,69.22-52.13A2.69,2.69,0,0,0,660,247.37ZM616.61,455.86a102.72,102.72,0,0,1-1.26,16.62,1.42,1.42,0,0,1-.06.31c-8.14,48.88-52.12,57.72-80.72,58.16h-1.94a81.63,81.63,0,0,1-24.8-3.9l-.39-.09c-4.11-.61-7.75-1.17-11.13-1.6-14.24-2.06-23.51-3.09-33.19-3.09-11.06,0-22.3,1.33-41.65,4.25l-.41.13a82.16,82.16,0,0,1-25.54,4.3c-32.79-.17-56.3-10.09-69.86-29.75-10.16-13.9-15.31-33.23-15.31-57.49l0-.29,0-.67c0-1.68.07-3.31.13-5l.09-1.63c.05-1.06.13-2.12.23-3.11,0-.62.11-1.13.19-1.93s.23-1.77.35-2.62c.06-.68.19-1.35.26-2s.29-1.52.43-2.32a16.52,16.52,0,0,1,.39-2c.17-.7.3-1.41.48-2.1l.11-.29c.13-.6.23-1.16.41-1.74s.3-1.1.47-1.63l.09-.25c5.26-17.56,16.39-30.45,33.23-38.32,1.93-.94,3.91-1.84,6-2.67a2.56,2.56,0,0,0,.63-.42c12.78-4.47,26.84-6,40.06-6a80.83,80.83,0,0,1,26.68,4.54l2.21.5c18.95,4.67,28.43,7,38.77,7,11.17,0,22.6-2.82,45.54-8.42a82.36,82.36,0,0,1,24.13-3.66C572.57,368.72,616.61,391.61,616.61,455.86Z" transform="translate(-247.98 -132.26)"/><path class="cls-2" d="M641.36,253.09c0,3.31-7.57,2.71-11.19,5.76,1.13,18.76-6.74,17.56-28.19,7.86,0,0-14.54,5.11-16.66,3.93-18.49-22.38-17.27-46.65-1.51-50.25-16.56-20.15,12.17-20,23.14-23.93a22.93,22.93,0,0,0-5.1-.85c-.37,0-.73-.06-1.16-.06-9.1,0-29.4,3.46-41.11,16.59a2.62,2.62,0,0,1-3.22.52,2.59,2.59,0,0,1-1.25-3c.2-.58,4.39-14.57,9.66-23.41a31,31,0,0,0-2.92-28.3c-5.45-8-14.09-11.22-22.4-8-9.9,3.74-13,13.43-12.62,21.33.34,7.43,4,15.94,11.83,18.1a2.78,2.78,0,0,1,1.62,1.35,2.34,2.34,0,0,1,.06,2,48.51,48.51,0,0,0-.76,6.69,50,50,0,0,1-.66,6.15c-.92,3.68-9.26,8.52-13.72,10.17,3.21,22.88-20.21,21.18-27,16-17.91,17.4-22.55,9.31-35.26.27-5.39,15.22-16.6,13.68-18.69,11.54-8.34-9-10.64-8.48-13.35-7.33-22.53,11.19-30.84.4-31.64-8.08C369.6,232,369.2,206,384.8,194.93a2.92,2.92,0,0,1,.54-1.09c-2.67-3-3-7.46-3.34-11.46l-.19-1.69a2.62,2.62,0,0,1,1.78-2.66c12.65-4.41,13.06-13.7,12.18-18.8a23.92,23.92,0,0,0-2.74-7.58c-5.9,8.2-12.21,14-17.85,9-4.73,6.51-20.58,13.52-26.9-6.36a25.76,25.76,0,0,0-.15,9c1.74,10.78,9.79,21,16.26,20.13a2.69,2.69,0,0,1,2.69,1.46,2.59,2.59,0,0,1-.57,3c-1.64,2.14-1.47,16.51-.19,19.85a2.79,2.79,0,0,1,.19,1.25c-.43,3.48-5.29,12.27-6.24,14a2.58,2.58,0,0,1-2.12,1.33,2.82,2.82,0,0,1-2.28-1.13,67.53,67.53,0,0,0-9.64-11.49c-13,4.35-24,9.78-20,58.05-10-6.28-28.88-32.32-48.9-7.88-3.53,4.33-12.46,11.72-20.31,10.86,12,19.44,27.87,28.88,48.38,28.88h1c9.4,0,19.28-1.88,30.43-5.78a2.64,2.64,0,0,1,2.51.5,2.49,2.49,0,0,1,.87,2.36c-1.17,6.85,3,41.44,11.39,69.23.29.36.9,1,1.54,1.88,14.13-4.89,28.86-6.22,40.8-6.22a87,87,0,0,1,28.16,4.7l2,.53c18.44,4.5,27.78,6.8,37.49,6.8,10.53,0,21.75-2.71,44.19-8.18a86.42,86.42,0,0,1,25.48-3.85,107.52,107.52,0,0,1,34.62,5.5c.24-.4.39-.74.53-.95,8.44-27.82,12.62-62.57,11.48-69.44a2.45,2.45,0,0,1,.88-2.36,2.63,2.63,0,0,1,2.51-.5c.88.32,4.06,1.27,10,1.27,9.78,0,42.21-3.29,62.05-43.75C649,254.81,644.68,254.81,641.36,253.09Z" transform="translate(-247.98 -132.26)"/><path class="cls-2" d="M531.27,368.72a82.36,82.36,0,0,0-24.13,3.66c-22.94,5.6-34.37,8.42-45.54,8.42-10.34,0-19.82-2.37-38.77-7l-2.21-.5a80.83,80.83,0,0,0-26.68-4.54c-13.22,0-27.28,1.55-40.06,6a2.56,2.56,0,0,1-.63.42c-2.13.83-4.11,1.73-6,2.67-16.84,7.87-28,20.76-33.23,38.32l-.09.25c-.17.53-.36,1.11-.47,1.63s-.28,1.14-.41,1.74l-.11.29c-.18.69-.31,1.4-.48,2.1a16.52,16.52,0,0,0-.39,2c-.14.8-.27,1.55-.43,2.32s-.2,1.34-.26,2c-.12.85-.24,1.73-.35,2.62s-.15,1.31-.19,1.93c-.1,1-.18,2.05-.23,3.11l-.09,1.63c-.06,1.67-.13,3.3-.13,5l0,.67,0,.29c0,24.26,5.15,43.59,15.31,57.49,13.56,19.66,37.07,29.58,69.86,29.75a82.16,82.16,0,0,0,25.54-4.3l.41-.13c19.35-2.92,30.59-4.25,41.65-4.25,9.68,0,18.95,1,33.19,3.09,3.38.43,7,1,11.13,1.6l.39.09a81.63,81.63,0,0,0,24.8,3.9h1.94c28.6-.44,72.58-9.28,80.72-58.16a1.42,1.42,0,0,0,.06-.31,102.72,102.72,0,0,0,1.26-16.62C616.61,391.61,572.57,368.72,531.27,368.72Z" transform="translate(-247.98 -132.26)"/><path class="cls-2" d="M433.28,333.57a63.09,63.09,0,0,1-9.82,6,12.94,12.94,0,0,1-7.18,1.16c-1.74-.28-3.9-1.43-6.29-3.85s-4.68-5.54-7.69-9c0-.07-.12-.1-.19-.1a.32.32,0,0,0-.47.25,20.37,20.37,0,0,0,.27,13.66,17.79,17.79,0,0,0,4.28,6.54,15.64,15.64,0,0,0,7.79,4.15,15.38,15.38,0,0,0,8.84-.77,16.39,16.39,0,0,0,6.5-4.54,16.94,16.94,0,0,0,4.57-13.18.23.23,0,0,1-.06-.15A.37.37,0,0,0,433.28,333.57Z" transform="translate(-247.98 -132.26)"/><path class="cls-2" d="M491.45,298.2c-2.58-3.49-5.34-5-7.36-5.57C481.55,295.47,486.24,300.71,491.45,298.2Z" transform="translate(-247.98 -132.26)"/><path class="cls-2" d="M413.12,329.08a9.94,9.94,0,0,0,6.39,2.61,16,16,0,0,0,6.22-1,.6.6,0,0,0,.4-.47.64.64,0,0,0-.55-.67h0c-2-.28-3.87-1-5.63-1.39a8.64,8.64,0,0,1-4.41-2.14c-2.29-2.14-3.48-5.77-5.78-9.19a.58.58,0,0,0-.57-.28.55.55,0,0,0-.51.68c.35,2,.7,4,1.21,5.93A12.8,12.8,0,0,0,413.12,329.08Z" transform="translate(-247.98 -132.26)"/><path class="cls-2" d="M481.31,330.7a10.82,10.82,0,0,0,7.82-.13,16.57,16.57,0,0,0,6.15-4.32,20.45,20.45,0,0,0,3.79-5.89.56.56,0,0,0-.05-.6.54.54,0,0,0-.83-.06c-1.82,1.33-3.51,2.81-5.26,4a20.72,20.72,0,0,1-5.22,2.82,11.83,11.83,0,0,1-5.37.45,30.79,30.79,0,0,1-6-1.82,1,1,0,0,0-.6,0,.66.66,0,0,0-.15.86A11,11,0,0,0,481.31,330.7Z" transform="translate(-247.98 -132.26)"/><path class="cls-2" d="M507.51,322.88a1,1,0,0,0-1.23.44v.1a24.83,24.83,0,0,1-6.83,8.09,30,30,0,0,1-7.83,4.71,15.52,15.52,0,0,1-7.18,1.16c-2.34-.15-5.29-1.73-8.79-4.43a1.21,1.21,0,0,0-.5-.19,1.05,1.05,0,0,0-1.11.84v.09a13.76,13.76,0,0,0,1.25,7.07,13.31,13.31,0,0,0,5.21,5.91,14.7,14.7,0,0,0,8,2.16,18.09,18.09,0,0,0,7.61-1.71,23.07,23.07,0,0,0,10.49-9.84,20.23,20.23,0,0,0,2.27-6.87,13,13,0,0,0-.86-7.09A5.23,5.23,0,0,0,507.51,322.88Z" transform="translate(-247.98 -132.26)"/><path class="cls-2" d="M430.9,292.37s-2,3.54-3.24,5.12a11.08,11.08,0,0,0-1.17,8.73C437.59,301.3,433.49,294.24,430.9,292.37Z" transform="translate(-247.98 -132.26)"/><path class="cls-1" d="M477,287c-14.12,5-9.77,41.19-8.05,46.43,7,21.48,21.45,18.79,26.47,17.91,19.48-6.44,16.05-27.71,15.51-33.44C507,289.32,481.33,285.26,477,287Zm7.08,5.63c2,.55,4.78,2.08,7.36,5.57C486.24,300.71,481.55,295.47,484.09,292.63Zm-8.36,32.55a1,1,0,0,1,.6,0,30.79,30.79,0,0,0,6,1.82,11.83,11.83,0,0,0,5.37-.45,20.72,20.72,0,0,0,5.22-2.82c1.75-1.19,3.44-2.67,5.26-4a.54.54,0,0,1,.83.06.56.56,0,0,1,.05.6,20.45,20.45,0,0,1-3.79,5.89,16.57,16.57,0,0,1-6.15,4.32,10.82,10.82,0,0,1-7.82.13,11,11,0,0,1-5.73-4.66A.66.66,0,0,1,475.73,325.18Zm33.12,5.23a20.23,20.23,0,0,1-2.27,6.87,23.07,23.07,0,0,1-10.49,9.84,18.09,18.09,0,0,1-7.61,1.71,14.7,14.7,0,0,1-8-2.16,13.31,13.31,0,0,1-5.21-5.91,13.76,13.76,0,0,1-1.25-7.07v-.09a1.05,1.05,0,0,1,1.11-.84,1.21,1.21,0,0,1,.5.19c3.5,2.7,6.45,4.28,8.79,4.43a15.52,15.52,0,0,0,7.18-1.16,30,30,0,0,0,7.83-4.71,24.83,24.83,0,0,0,6.83-8.09v-.1a1,1,0,0,1,1.23-.44,5.23,5.23,0,0,1,.48.44A13,13,0,0,1,508.85,330.41Z" transform="translate(-247.98 -132.26)"/><path class="cls-1" d="M434.78,287.34c-18.38-4.23-28,8.85-32.41,18.48-14.69,39.37,4.84,57.07,22.58,50.37s15.61-34.92,15.77-50.15S437.45,288.47,434.78,287.34Zm-7.12,10.15c1.2-1.58,3.24-5.12,3.24-5.12,2.59,1.87,6.69,8.93-4.41,13.85A11.08,11.08,0,0,1,427.66,297.49Zm-18.47,19.09a.58.58,0,0,1,.57.28c2.3,3.42,3.49,7.05,5.78,9.19a8.64,8.64,0,0,0,4.41,2.14c1.76.38,3.62,1.11,5.63,1.39h0a.64.64,0,0,1,.55.67.6.6,0,0,1-.4.47,16,16,0,0,1-6.22,1,9.94,9.94,0,0,1-6.39-2.61,12.8,12.8,0,0,1-3.23-5.89c-.51-2-.86-3.9-1.21-5.93A.55.55,0,0,1,409.19,316.58ZM429.32,347a16.39,16.39,0,0,1-6.5,4.54,15.38,15.38,0,0,1-8.84.77,15.64,15.64,0,0,1-7.79-4.15,17.79,17.79,0,0,1-4.28-6.54,20.37,20.37,0,0,1-.27-13.66.32.32,0,0,1,.47-.25c.07,0,.17,0,.19.1,3,3.47,5.26,6.67,7.69,9s4.55,3.57,6.29,3.85a12.94,12.94,0,0,0,7.18-1.16,63.09,63.09,0,0,0,9.82-6,.38.38,0,0,1,.55.12.25.25,0,0,0,.06.16A16.94,16.94,0,0,1,429.32,347Z" transform="translate(-247.98 -132.26)"/><path class="cls-1" d="M403.65,267.53c1.89-2.74,3.88-5.23,5.6-7.34a66.22,66.22,0,0,1,6.69-7,28.81,28.81,0,0,1,4.51-3.07,15.62,15.62,0,0,1,6.26-2,8.63,8.63,0,0,1,1.12-.08A13.72,13.72,0,0,1,434,249.6a8.34,8.34,0,0,1,2.93,2.26,5.38,5.38,0,0,1,1.09,1.79,5.57,5.57,0,0,1,.33,2.22,6.13,6.13,0,0,1-5.57,6l-.5.07a5.22,5.22,0,0,1-1.39-.21,3.8,3.8,0,0,1-1.11-.2,7.28,7.28,0,0,1-1.31-.68l-.22-.18a1.41,1.41,0,0,0-.93-.35h0c-1,0-2.77.68-4.92,2.12a70.19,70.19,0,0,0-6.46,5L409.21,273a3.75,3.75,0,0,1-5.51-.73A3.9,3.9,0,0,1,403.65,267.53ZM467,251.84a5.88,5.88,0,0,0,5.6,5.85,7,7,0,0,0,1.65-.07h.11a3.85,3.85,0,0,0,1-.16,5,5,0,0,0,1.33-.58l.14-.07a2.65,2.65,0,0,1,1.21-.29,11.15,11.15,0,0,1,5,2.12,73.57,73.57,0,0,1,6.38,4.73l6.66,5.32a4.14,4.14,0,0,0,2.51.84,3.69,3.69,0,0,0,2.91-1.24,3.53,3.53,0,0,0,.34-4.67,75.2,75.2,0,0,0-5.46-6.88,57.22,57.22,0,0,0-6.56-6.57,24.49,24.49,0,0,0-4.46-3,15.67,15.67,0,0,0-6.16-2,14.69,14.69,0,0,0-7.47,1,9.67,9.67,0,0,0-3.13,1.9,8.49,8.49,0,0,0-1.27,1.68A4.65,4.65,0,0,0,467,251.84Z" transform="translate(-247.98 -132.26)"/><path class="cls-1" d="M518.07,460.53c-2.63-.6-5.18-1.19-7.88-1.64a1.39,1.39,0,0,0-1.21.55,1.22,1.22,0,0,0,.38,1.65,41.74,41.74,0,0,0,7.38,3.63c1.19.45,2.4.85,3.63,1.21a101.4,101.4,0,0,1-9.63,13.31,72.54,72.54,0,0,1-13.6,12.38,55.34,55.34,0,0,1-16.25,7.74,54.53,54.53,0,0,1-17.82,1.75c-11.94-.82-23.53-5.54-33.54-12.44-9.31-6.38-17.32-14.3-25-23a29.64,29.64,0,0,0,2.89-1,40.49,40.49,0,0,0,7.41-3.59,1.14,1.14,0,0,0,.5-1.18,1.2,1.2,0,0,0-1.33-1c-2.67.43-5.27,1.08-7.85,1.66l-7.65,1.89a82.23,82.23,0,0,1-15.42,2.2,1.16,1.16,0,0,0-1.09.88,1.12,1.12,0,0,0,.8,1.41,29,29,0,0,0,8.37.91,46.66,46.66,0,0,0,8.3-.91c.65-.17,1.26-.29,2-.42,5,11.32,13.87,20.92,24.2,27.93,10.86,7.38,23.7,12.55,37.11,13.12a56.29,56.29,0,0,0,37.44-11.87,70.7,70.7,0,0,0,13.62-14,88,88,0,0,0,9.11-15c.64.12,1.23.29,1.85.39A43.6,43.6,0,0,0,533,468a25.83,25.83,0,0,0,8.34-1,1.18,1.18,0,0,0-.23-2.29h-.06a97.53,97.53,0,0,1-15.33-2.35Z" transform="translate(-247.98 -132.26)"/><path class="cls-1" d="M527,157.92c5.29,6.91,10.62,9.37,17.11,5.27,5.3,2.43,17.54,4.77,19.76-1.7,1-3.57,0-5.23,0-5.23s-9.94-9.36-15.26-9.36S532.27,148.21,527,157.92Z" transform="translate(-247.98 -132.26)"/><path class="cls-1" d="M450.8,404c-7.39,1.32-15.88,3.47-16.52,14.91a8.35,8.35,0,0,0,6.46,8.45c2.2.07,2.32-6.39,2.18-9.87,0-.48,15,.41,16.55-8.32C459.83,406.88,457.68,403,450.8,404Z" transform="translate(-247.98 -132.26)"/><path class="cls-1" d="M475.7,404c7.43,1.32,15.92,3.47,16.55,14.91a8.32,8.32,0,0,1-6.49,8.45c-2.22.07-2.35-6.39-2.13-9.87-.09-.48-15,.41-16.64-8.32C466.67,406.88,468.83,403,475.7,404Z" transform="translate(-247.98 -132.26)"/></svg>